<?xml version="1.0" standalone="no"?>
<svg xmlns="http://www.w3.org/2000/svg" width="1000" height="1000" xmlns:xlink="http://www.w3.org/1999/xlink" viewBox="0 0 116 116"><defs/><style>.background-color--29{ fill: #FFF; }.dot-color{ fill: #000000; }.corners-square-color-0-0{ fill: #000000; }.corners-dot-color-0-0{ fill: #000000; }.corners-square-color-1-0{ fill: #000000; }.corners-dot-color-1-0{ fill: #000000; }.corners-square-color-0-1{ fill: #000000; }.corners-dot-color-0-1{ fill: #000000; }</style><g class="background-color--29"><rect x="0" y="0" height="116" width="116"/></g><g class="dot-color"><rect x="40" y="8" width="4" height="4" transform="rotate(0,42,10)"/><rect x="44" y="8" width="4" height="4" transform="rotate(0,46,10)"/><rect x="48" y="8" width="4" height="4" transform="rotate(0,50,10)"/><rect x="72" y="8" width="4" height="4" transform="rotate(0,74,10)"/><rect x="40" y="12" width="4" height="4" transform="rotate(0,42,14)"/><rect x="44" y="12" width="4" height="4" transform="rotate(0,46,14)"/><rect x="48" y="12" width="4" height="4" transform="rotate(0,50,14)"/><rect x="52" y="12" width="4" height="4" transform="rotate(0,54,14)"/><rect x="64" y="12" width="4" height="4" transform="rotate(0,66,14)"/><rect x="72" y="12" width="4" height="4" transform="rotate(0,74,14)"/><rect x="44" y="16" width="4" height="4" transform="rotate(0,46,18)"/><rect x="56" y="16" width="4" height="4" transform="rotate(0,58,18)"/><rect x="60" y="16" width="4" height="4" transform="rotate(0,62,18)"/><rect x="64" y="16" width="4" height="4" transform="rotate(0,66,18)"/><rect x="40" y="20" width="4" height="4" transform="rotate(0,42,22)"/><rect x="48" y="20" width="4" height="4" transform="rotate(0,50,22)"/><rect x="52" y="20" width="4" height="4" transform="rotate(0,54,22)"/><rect x="60" y="20" width="4" height="4" transform="rotate(0,62,22)"/><rect x="68" y="20" width="4" height="4" transform="rotate(0,70,22)"/><rect x="44" y="24" width="4" height="4" transform="rotate(0,46,26)"/><rect x="48" y="24" width="4" height="4" transform="rotate(0,50,26)"/><rect x="60" y="24" width="4" height="4" transform="rotate(0,62,26)"/><rect x="68" y="24" width="4" height="4" transform="rotate(0,70,26)"/><rect x="72" y="24" width="4" height="4" transform="rotate(0,74,26)"/><rect x="48" y="28" width="4" height="4" transform="rotate(0,50,30)"/><rect x="60" y="28" width="4" height="4" transform="rotate(0,62,30)"/><rect x="40" y="32" width="4" height="4" transform="rotate(0,42,34)"/><rect x="48" y="32" width="4" height="4" transform="rotate(0,50,34)"/><rect x="56" y="32" width="4" height="4" transform="rotate(0,58,34)"/><rect x="64" y="32" width="4" height="4" transform="rotate(0,66,34)"/><rect x="72" y="32" width="4" height="4" transform="rotate(0,74,34)"/><rect x="40" y="36" width="4" height="4" transform="rotate(0,42,38)"/><rect x="48" y="36" width="4" height="4" transform="rotate(0,50,38)"/><rect x="56" y="36" width="4" height="4" transform="rotate(0,58,38)"/><rect x="72" y="36" width="4" height="4" transform="rotate(0,74,38)"/><rect x="8" y="40" width="4" height="4" transform="rotate(0,10,42)"/><rect x="16" y="40" width="4" height="4" transform="rotate(0,18,42)"/><rect x="20" y="40" width="4" height="4" transform="rotate(0,22,42)"/><rect x="28" y="40" width="4" height="4" transform="rotate(0,30,42)"/><rect x="32" y="40" width="4" height="4" transform="rotate(0,34,42)"/><rect x="36" y="40" width="4" height="4" transform="rotate(0,38,42)"/><rect x="72" y="40" width="4" height="4" transform="rotate(0,74,42)"/><rect x="80" y="40" width="4" height="4" transform="rotate(0,82,42)"/><rect x="92" y="40" width="4" height="4" transform="rotate(0,94,42)"/><rect x="100" y="40" width="4" height="4" transform="rotate(0,102,42)"/><rect x="104" y="40" width="4" height="4" transform="rotate(0,106,42)"/><rect x="8" y="44" width="4" height="4" transform="rotate(0,10,46)"/><rect x="12" y="44" width="4" height="4" transform="rotate(0,14,46)"/><rect x="16" y="44" width="4" height="4" transform="rotate(0,18,46)"/><rect x="28" y="44" width="4" height="4" transform="rotate(0,30,46)"/><rect x="48" y="44" width="4" height="4" transform="rotate(0,50,46)"/><rect x="52" y="44" width="4" height="4" transform="rotate(0,54,46)"/><rect x="56" y="44" width="4" height="4" transform="rotate(0,58,46)"/><rect x="64" y="44" width="4" height="4" transform="rotate(0,66,46)"/><rect x="72" y="44" width="4" height="4" transform="rotate(0,74,46)"/><rect x="76" y="44" width="4" height="4" transform="rotate(0,78,46)"/><rect x="84" y="44" width="4" height="4" transform="rotate(0,86,46)"/><rect x="100" y="44" width="4" height="4" transform="rotate(0,102,46)"/><rect x="16" y="48" width="4" height="4" transform="rotate(0,18,50)"/><rect x="32" y="48" width="4" height="4" transform="rotate(0,34,50)"/><rect x="36" y="48" width="4" height="4" transform="rotate(0,38,50)"/><rect x="40" y="48" width="4" height="4" transform="rotate(0,42,50)"/><rect x="48" y="48" width="4" height="4" transform="rotate(0,50,50)"/><rect x="56" y="48" width="4" height="4" transform="rotate(0,58,50)"/><rect x="72" y="48" width="4" height="4" transform="rotate(0,74,50)"/><rect x="76" y="48" width="4" height="4" transform="rotate(0,78,50)"/><rect x="84" y="48" width="4" height="4" transform="rotate(0,86,50)"/><rect x="16" y="52" width="4" height="4" transform="rotate(0,18,54)"/><rect x="36" y="52" width="4" height="4" transform="rotate(0,38,54)"/><rect x="40" y="52" width="4" height="4" transform="rotate(0,42,54)"/><rect x="48" y="52" width="4" height="4" transform="rotate(0,50,54)"/><rect x="56" y="52" width="4" height="4" transform="rotate(0,58,54)"/><rect x="60" y="52" width="4" height="4" transform="rotate(0,62,54)"/><rect x="68" y="52" width="4" height="4" transform="rotate(0,70,54)"/><rect x="76" y="52" width="4" height="4" transform="rotate(0,78,54)"/><rect x="84" y="52" width="4" height="4" transform="rotate(0,86,54)"/><rect x="92" y="52" width="4" height="4" transform="rotate(0,94,54)"/><rect x="96" y="52" width="4" height="4" transform="rotate(0,98,54)"/><rect x="28" y="56" width="4" height="4" transform="rotate(0,30,58)"/><rect x="32" y="56" width="4" height="4" transform="rotate(0,34,58)"/><rect x="40" y="56" width="4" height="4" transform="rotate(0,42,58)"/><rect x="44" y="56" width="4" height="4" transform="rotate(0,46,58)"/><rect x="52" y="56" width="4" height="4" transform="rotate(0,54,58)"/><rect x="76" y="56" width="4" height="4" transform="rotate(0,78,58)"/><rect x="80" y="56" width="4" height="4" transform="rotate(0,82,58)"/><rect x="84" y="56" width="4" height="4" transform="rotate(0,86,58)"/><rect x="88" y="56" width="4" height="4" transform="rotate(0,90,58)"/><rect x="96" y="56" width="4" height="4" transform="rotate(0,98,58)"/><rect x="100" y="56" width="4" height="4" transform="rotate(0,102,58)"/><rect x="104" y="56" width="4" height="4" transform="rotate(0,106,58)"/><rect x="12" y="60" width="4" height="4" transform="rotate(0,14,62)"/><rect x="16" y="60" width="4" height="4" transform="rotate(0,18,62)"/><rect x="40" y="60" width="4" height="4" transform="rotate(0,42,62)"/><rect x="44" y="60" width="4" height="4" transform="rotate(0,46,62)"/><rect x="52" y="60" width="4" height="4" transform="rotate(0,54,62)"/><rect x="60" y="60" width="4" height="4" transform="rotate(0,62,62)"/><rect x="64" y="60" width="4" height="4" transform="rotate(0,66,62)"/><rect x="68" y="60" width="4" height="4" transform="rotate(0,70,62)"/><rect x="80" y="60" width="4" height="4" transform="rotate(0,82,62)"/><rect x="84" y="60" width="4" height="4" transform="rotate(0,86,62)"/><rect x="88" y="60" width="4" height="4" transform="rotate(0,90,62)"/><rect x="104" y="60" width="4" height="4" transform="rotate(0,106,62)"/><rect x="12" y="64" width="4" height="4" transform="rotate(0,14,66)"/><rect x="16" y="64" width="4" height="4" transform="rotate(0,18,66)"/><rect x="28" y="64" width="4" height="4" transform="rotate(0,30,66)"/><rect x="32" y="64" width="4" height="4" transform="rotate(0,34,66)"/><rect x="44" y="64" width="4" height="4" transform="rotate(0,46,66)"/><rect x="56" y="64" width="4" height="4" transform="rotate(0,58,66)"/><rect x="64" y="64" width="4" height="4" transform="rotate(0,66,66)"/><rect x="88" y="64" width="4" height="4" transform="rotate(0,90,66)"/><rect x="96" y="64" width="4" height="4" transform="rotate(0,98,66)"/><rect x="100" y="64" width="4" height="4" transform="rotate(0,102,66)"/><rect x="8" y="68" width="4" height="4" transform="rotate(0,10,70)"/><rect x="16" y="68" width="4" height="4" transform="rotate(0,18,70)"/><rect x="20" y="68" width="4" height="4" transform="rotate(0,22,70)"/><rect x="36" y="68" width="4" height="4" transform="rotate(0,38,70)"/><rect x="44" y="68" width="4" height="4" transform="rotate(0,46,70)"/><rect x="48" y="68" width="4" height="4" transform="rotate(0,50,70)"/><rect x="56" y="68" width="4" height="4" transform="rotate(0,58,70)"/><rect x="60" y="68" width="4" height="4" transform="rotate(0,62,70)"/><rect x="68" y="68" width="4" height="4" transform="rotate(0,70,70)"/><rect x="72" y="68" width="4" height="4" transform="rotate(0,74,70)"/><rect x="84" y="68" width="4" height="4" transform="rotate(0,86,70)"/><rect x="88" y="68" width="4" height="4" transform="rotate(0,90,70)"/><rect x="104" y="68" width="4" height="4" transform="rotate(0,106,70)"/><rect x="20" y="72" width="4" height="4" transform="rotate(0,22,74)"/><rect x="32" y="72" width="4" height="4" transform="rotate(0,34,74)"/><rect x="44" y="72" width="4" height="4" transform="rotate(0,46,74)"/><rect x="48" y="72" width="4" height="4" transform="rotate(0,50,74)"/><rect x="52" y="72" width="4" height="4" transform="rotate(0,54,74)"/><rect x="72" y="72" width="4" height="4" transform="rotate(0,74,74)"/><rect x="76" y="72" width="4" height="4" transform="rotate(0,78,74)"/><rect x="80" y="72" width="4" height="4" transform="rotate(0,82,74)"/><rect x="84" y="72" width="4" height="4" transform="rotate(0,86,74)"/><rect x="88" y="72" width="4" height="4" transform="rotate(0,90,74)"/><rect x="92" y="72" width="4" height="4" transform="rotate(0,94,74)"/><rect x="96" y="72" width="4" height="4" transform="rotate(0,98,74)"/><rect x="100" y="72" width="4" height="4" transform="rotate(0,102,74)"/><rect x="104" y="72" width="4" height="4" transform="rotate(0,106,74)"/><rect x="40" y="76" width="4" height="4" transform="rotate(0,42,78)"/><rect x="56" y="76" width="4" height="4" transform="rotate(0,58,78)"/><rect x="60" y="76" width="4" height="4" transform="rotate(0,62,78)"/><rect x="72" y="76" width="4" height="4" transform="rotate(0,74,78)"/><rect x="88" y="76" width="4" height="4" transform="rotate(0,90,78)"/><rect x="96" y="76" width="4" height="4" transform="rotate(0,98,78)"/><rect x="104" y="76" width="4" height="4" transform="rotate(0,106,78)"/><rect x="40" y="80" width="4" height="4" transform="rotate(0,42,82)"/><rect x="52" y="80" width="4" height="4" transform="rotate(0,54,82)"/><rect x="56" y="80" width="4" height="4" transform="rotate(0,58,82)"/><rect x="72" y="80" width="4" height="4" transform="rotate(0,74,82)"/><rect x="80" y="80" width="4" height="4" transform="rotate(0,82,82)"/><rect x="88" y="80" width="4" height="4" transform="rotate(0,90,82)"/><rect x="96" y="80" width="4" height="4" transform="rotate(0,98,82)"/><rect x="100" y="80" width="4" height="4" transform="rotate(0,102,82)"/><rect x="104" y="80" width="4" height="4" transform="rotate(0,106,82)"/><rect x="40" y="84" width="4" height="4" transform="rotate(0,42,86)"/><rect x="56" y="84" width="4" height="4" transform="rotate(0,58,86)"/><rect x="68" y="84" width="4" height="4" transform="rotate(0,70,86)"/><rect x="72" y="84" width="4" height="4" transform="rotate(0,74,86)"/><rect x="88" y="84" width="4" height="4" transform="rotate(0,90,86)"/><rect x="100" y="84" width="4" height="4" transform="rotate(0,102,86)"/><rect x="44" y="88" width="4" height="4" transform="rotate(0,46,90)"/><rect x="48" y="88" width="4" height="4" transform="rotate(0,50,90)"/><rect x="52" y="88" width="4" height="4" transform="rotate(0,54,90)"/><rect x="56" y="88" width="4" height="4" transform="rotate(0,58,90)"/><rect x="60" y="88" width="4" height="4" transform="rotate(0,62,90)"/><rect x="72" y="88" width="4" height="4" transform="rotate(0,74,90)"/><rect x="76" y="88" width="4" height="4" transform="rotate(0,78,90)"/><rect x="80" y="88" width="4" height="4" transform="rotate(0,82,90)"/><rect x="84" y="88" width="4" height="4" transform="rotate(0,86,90)"/><rect x="88" y="88" width="4" height="4" transform="rotate(0,90,90)"/><rect x="92" y="88" width="4" height="4" transform="rotate(0,94,90)"/><rect x="100" y="88" width="4" height="4" transform="rotate(0,102,90)"/><rect x="40" y="92" width="4" height="4" transform="rotate(0,42,94)"/><rect x="48" y="92" width="4" height="4" transform="rotate(0,50,94)"/><rect x="56" y="92" width="4" height="4" transform="rotate(0,58,94)"/><rect x="60" y="92" width="4" height="4" transform="rotate(0,62,94)"/><rect x="64" y="92" width="4" height="4" transform="rotate(0,66,94)"/><rect x="80" y="92" width="4" height="4" transform="rotate(0,82,94)"/><rect x="88" y="92" width="4" height="4" transform="rotate(0,90,94)"/><rect x="92" y="92" width="4" height="4" transform="rotate(0,94,94)"/><rect x="96" y="92" width="4" height="4" transform="rotate(0,98,94)"/><rect x="100" y="92" width="4" height="4" transform="rotate(0,102,94)"/><rect x="104" y="92" width="4" height="4" transform="rotate(0,106,94)"/><rect x="40" y="96" width="4" height="4" transform="rotate(0,42,98)"/><rect x="44" y="96" width="4" height="4" transform="rotate(0,46,98)"/><rect x="48" y="96" width="4" height="4" transform="rotate(0,50,98)"/><rect x="52" y="96" width="4" height="4" transform="rotate(0,54,98)"/><rect x="56" y="96" width="4" height="4" transform="rotate(0,58,98)"/><rect x="60" y="96" width="4" height="4" transform="rotate(0,62,98)"/><rect x="68" y="96" width="4" height="4" transform="rotate(0,70,98)"/><rect x="72" y="96" width="4" height="4" transform="rotate(0,74,98)"/><rect x="76" y="96" width="4" height="4" transform="rotate(0,78,98)"/><rect x="80" y="96" width="4" height="4" transform="rotate(0,82,98)"/><rect x="88" y="96" width="4" height="4" transform="rotate(0,90,98)"/><rect x="96" y="96" width="4" height="4" transform="rotate(0,98,98)"/><rect x="100" y="96" width="4" height="4" transform="rotate(0,102,98)"/><rect x="44" y="100" width="4" height="4" transform="rotate(0,46,102)"/><rect x="48" y="100" width="4" height="4" transform="rotate(0,50,102)"/><rect x="76" y="100" width="4" height="4" transform="rotate(0,78,102)"/><rect x="80" y="100" width="4" height="4" transform="rotate(0,82,102)"/><rect x="88" y="100" width="4" height="4" transform="rotate(0,90,102)"/><rect x="96" y="100" width="4" height="4" transform="rotate(0,98,102)"/><rect x="40" y="104" width="4" height="4" transform="rotate(0,42,106)"/><rect x="48" y="104" width="4" height="4" transform="rotate(0,50,106)"/><rect x="56" y="104" width="4" height="4" transform="rotate(0,58,106)"/><rect x="64" y="104" width="4" height="4" transform="rotate(0,66,106)"/><rect x="84" y="104" width="4" height="4" transform="rotate(0,86,106)"/><rect x="88" y="104" width="4" height="4" transform="rotate(0,90,106)"/><rect x="92" y="104" width="4" height="4" transform="rotate(0,94,106)"/><rect x="96" y="104" width="4" height="4" transform="rotate(0,98,106)"/><rect x="100" y="104" width="4" height="4" transform="rotate(0,102,106)"/><rect x="104" y="104" width="4" height="4" transform="rotate(0,106,106)"/></g><g class="corners-square-color-0-0"><path clip-rule="evenodd" d="M 8 8v 28h 28v -28zM 12 12h 20v 20h -20z" transform="rotate(0,22,22)"/></g><g class="corners-dot-color-0-0"><rect x="16" y="16" width="12" height="12" transform="rotate(0,22,22)"/></g><g class="corners-square-color-1-0"><path clip-rule="evenodd" d="M 80 8v 28h 28v -28zM 84 12h 20v 20h -20z" transform="rotate(90,94,22)"/></g><g class="corners-dot-color-1-0"><rect x="88" y="16" width="12" height="12" transform="rotate(90,94,22)"/></g><g class="corners-square-color-0-1"><path clip-rule="evenodd" d="M 8 80v 28h 28v -28zM 12 84h 20v 20h -20z" transform="rotate(-90,22,94)"/></g><g class="corners-dot-color-0-1"><rect x="16" y="88" width="12" height="12" transform="rotate(-90,22,94)"/></g></svg>